<svg width="382" height="382" viewBox="0 0 382 382" fill="none" xmlns="http://www.w3.org/2000/svg">
<g clip-path="url(#clip0_1045_535)">
<path d="M292.465 351.667H327.81C327.81 345.322 322.667 340.179 316.322 340.179H292.465V351.667Z" fill="#5E5E5D"/>
<path d="M280.096 340.179H197.038V351.667H280.096V340.179Z" fill="#5E5E5D"/>
<path d="M327.81 197.038H292.465V254.974C292.465 268.849 303.713 280.096 317.587 280.096H327.81V197.038Z" fill="#5E5E5D"/>
<path d="M327.81 0H292.465V184.669H327.81V0Z" fill="#5E5E5D"/>
<path d="M351.667 197.038H340.179V280.096H351.667V197.038Z" fill="#5E5E5D"/>
<path d="M254.974 292.465H197.038V327.81H280.096V317.587C280.096 303.712 268.848 292.465 254.974 292.465Z" fill="#5E5E5D"/>
<path d="M147.714 197.038H0V280.096H184.669V233.993C184.669 213.583 168.124 197.038 147.714 197.038Z" fill="#5E5E5D"/>
<path d="M184.669 292.465H0V327.81H184.669V292.465Z" fill="#5E5E5D"/>
<path d="M381.708 0H364.036V184.669H381.708V0Z" fill="#5E5E5D"/>
<path d="M351.667 292.465H340.179V316.322C340.179 322.666 345.322 327.81 351.667 327.81V292.465Z" fill="#5E5E5D"/>
<path d="M184.669 340.179H0V351.667H184.669V340.179Z" fill="#5E5E5D"/>
<path d="M340.179 351.667C346.523 351.667 351.667 346.524 351.667 340.179C345.322 340.179 340.179 345.323 340.179 351.667Z" fill="#5E5E5D"/>
<path d="M327.81 292.465H317.587C303.712 292.465 292.465 303.713 292.465 317.587V327.81H316.322C322.667 327.81 327.81 322.667 327.81 316.322V292.465Z" fill="#5E5E5D"/>
<path d="M381.708 197.038H364.036V280.096H381.708V197.038Z" fill="#5E5E5D"/>
<path d="M184.67 147.714V0H0.000976562V184.669H147.715C168.125 184.669 184.67 168.124 184.67 147.714Z" fill="#5E5E5D"/>
<path d="M280.096 197.038H233.993C213.583 197.038 197.038 213.583 197.038 233.993V280.096H254.974C268.849 280.096 280.096 268.848 280.096 254.974V197.038Z" fill="#007AC1"/>
<path d="M381.708 292.465H364.036V327.81H381.708V292.465Z" fill="#5E5E5D"/>
<path d="M184.669 364.036H0V381.708H184.669V364.036Z" fill="#5E5E5D"/>
<path d="M364.036 375.523V381.708H381.708V364.036H375.524C369.179 364.036 364.036 369.178 364.036 375.523Z" fill="#5E5E5D"/>
<path d="M381.708 340.179H364.036C364.036 346.524 369.179 351.667 375.524 351.667H381.708V340.179Z" fill="#5E5E5D"/>
<path d="M351.667 0H340.179V184.669H351.667V0Z" fill="#5E5E5D"/>
<path d="M280.096 0H197.038V147.714C197.038 168.124 213.583 184.669 233.993 184.669H280.096V0Z" fill="#5E5E5D"/>
<path d="M280.096 364.036H197.038V381.708H280.096V364.036Z" fill="#5E5E5D"/>
<path d="M327.81 364.036H292.465V381.708H327.81V364.036Z" fill="#5E5E5D"/>
<path d="M340.179 364.036V381.708H351.667V375.523C351.667 369.179 346.524 364.036 340.179 364.036Z" fill="#5E5E5D"/>
</g>
<defs>
<clipPath id="clip0_1045_535">
<rect width="381.708" height="381.708" fill="white"/>
</clipPath>
</defs>
</svg>
